<svg width="23" height="20" viewBox="0 0 23 20" fill="none" xmlns="http://www.w3.org/2000/svg">
<rect x="0.222221" y="0.222221" width="21.7777" height="19.5555" rx="4.2222" fill="white"/>
<rect x="0.222221" y="0.222221" width="21.7777" height="19.5555" rx="4.2222" stroke="#999999" stroke-width="0.444442"/>
<path d="M5.33325 4.81537C5.33325 4.71698 5.37234 4.62261 5.44191 4.55304C5.51148 4.48347 5.60585 4.44438 5.70424 4.44438H6.8172C6.89995 4.4444 6.98032 4.47209 7.04552 4.52305C7.11073 4.574 7.15703 4.6453 7.17705 4.72559L7.47755 5.92833H16.0918C16.1463 5.92838 16.2001 5.94042 16.2494 5.96361C16.2987 5.98679 16.3423 6.02055 16.377 6.06248C16.4118 6.1044 16.4369 6.15348 16.4506 6.20621C16.4643 6.25894 16.4662 6.31403 16.4561 6.36757L15.3432 12.3033C15.3273 12.3884 15.2822 12.4651 15.2156 12.5204C15.1491 12.5757 15.0654 12.606 14.9789 12.6061H8.30114C8.21465 12.606 8.1309 12.5757 8.06438 12.5204C7.99786 12.4651 7.95274 12.3884 7.93683 12.3033L6.82461 6.3787L6.52783 5.18635H5.70424C5.60585 5.18635 5.51148 5.14727 5.44191 5.07769C5.37234 5.00812 5.33325 4.91376 5.33325 4.81537ZM7.63485 6.6703L8.60906 11.8641H14.671L15.6452 6.6703H7.63485ZM9.04311 12.6061C8.64954 12.6061 8.2721 12.7624 7.9938 13.0407C7.71551 13.319 7.55917 13.6964 7.55917 14.09C7.55917 14.4836 7.71551 14.861 7.9938 15.1393C8.2721 15.4176 8.64954 15.574 9.04311 15.574C9.43668 15.574 9.81412 15.4176 10.0924 15.1393C10.3707 14.861 10.5271 14.4836 10.5271 14.09C10.5271 13.6964 10.3707 13.319 10.0924 13.0407C9.81412 12.7624 9.43668 12.6061 9.04311 12.6061ZM14.2369 12.6061C13.8433 12.6061 13.4659 12.7624 13.1876 13.0407C12.9093 13.319 12.753 13.6964 12.753 14.09C12.753 14.4836 12.9093 14.861 13.1876 15.1393C13.4659 15.4176 13.8433 15.574 14.2369 15.574C14.6305 15.574 15.0079 15.4176 15.2862 15.1393C15.5645 14.861 15.7209 14.4836 15.7209 14.09C15.7209 13.6964 15.5645 13.319 15.2862 13.0407C15.0079 12.7624 14.6305 12.6061 14.2369 12.6061ZM9.04311 13.348C9.23989 13.348 9.42862 13.4262 9.56776 13.5654C9.70691 13.7045 9.78508 13.8932 9.78508 14.09C9.78508 14.2868 9.70691 14.4755 9.56776 14.6147C9.42862 14.7538 9.23989 14.832 9.04311 14.832C8.84633 14.832 8.6576 14.7538 8.51846 14.6147C8.37931 14.4755 8.30114 14.2868 8.30114 14.09C8.30114 13.8932 8.37931 13.7045 8.51846 13.5654C8.6576 13.4262 8.84633 13.348 9.04311 13.348ZM14.2369 13.348C14.4337 13.348 14.6224 13.4262 14.7616 13.5654C14.9007 13.7045 14.9789 13.8932 14.9789 14.09C14.9789 14.2868 14.9007 14.4755 14.7616 14.6147C14.6224 14.7538 14.4337 14.832 14.2369 14.832C14.0401 14.832 13.8514 14.7538 13.7123 14.6147C13.5731 14.4755 13.4949 14.2868 13.4949 14.09C13.4949 13.8932 13.5731 13.7045 13.7123 13.5654C13.8514 13.4262 14.0401 13.348 14.2369 13.348V13.348Z" fill="black"/>
</svg>
